<svg width="33" height="33" viewBox="0 0 33 33" fill="none" xmlns="http://www.w3.org/2000/svg">
<g clip-path="url(#clip0_626_7669)">
<path d="M32.6601 16.6735C32.6601 7.75058 25.412 0.518799 16.4689 0.518799C7.52584 0.518799 0.27771 7.75058 0.27771 16.6735C0.27771 24.7382 6.19762 31.421 13.939 32.6326V21.3432H9.82796V16.6735H13.939V13.1144C13.939 9.06624 16.3551 6.82922 20.055 6.82922C21.8259 6.82922 23.6791 7.14474 23.6791 7.14474V11.1203H21.6362C19.6249 11.1203 18.9988 12.3666 18.9988 13.6445V16.6735H23.4893L22.7715 21.3432H18.9988V32.6326C26.7402 31.421 32.6601 24.7382 32.6601 16.6735Z" fill="white"/>
</g>
<defs>
<clipPath id="clip0_626_7669">
<rect width="32.3824" height="32.3094" fill="white" transform="translate(0.27771 0.518799)"/>
</clipPath>
</defs>
</svg>
