<svg width="33" height="33" viewBox="0 0 33 33" fill="none" xmlns="http://www.w3.org/2000/svg">
<g clip-path="url(#clip0_626_7672)">
<path fill-rule="evenodd" clip-rule="evenodd" d="M16.3609 0.519043C7.41875 0.519043 0.169678 7.75176 0.169678 16.6737C0.169678 25.5957 7.41875 32.8284 16.3609 32.8284C25.303 32.8284 32.5521 25.5957 32.5521 16.6737C32.5521 7.75176 25.303 0.519043 16.3609 0.519043ZM12.8026 8.10977C13.7237 8.06797 14.018 8.05774 16.3633 8.05774H16.3606C18.7065 8.05774 18.9997 8.06797 19.9209 8.10977C20.8402 8.15178 21.468 8.29697 22.0185 8.51007C22.587 8.72991 23.0674 9.02433 23.5477 9.50359C24.028 9.98244 24.3231 10.4632 24.5444 11.0299C24.7567 11.5776 24.9024 12.2038 24.9456 13.121C24.987 14.04 24.9978 14.3337 24.9978 16.6736C24.9978 19.0136 24.987 19.3065 24.9456 20.2255C24.9024 21.1424 24.7567 21.7687 24.5444 22.3167C24.3231 22.8832 24.028 23.3639 23.5477 23.8428C23.0679 24.3221 22.5869 24.6172 22.019 24.8372C21.4696 25.0502 20.8414 25.1955 19.9221 25.2375C19.001 25.2793 18.7076 25.2895 16.3622 25.2895C14.0171 25.2895 13.723 25.2793 12.8019 25.2375C11.8827 25.1955 11.2551 25.0502 10.7056 24.8372C10.138 24.6172 9.65625 24.3221 9.17645 23.8428C8.69624 23.3639 8.40123 22.8832 8.18048 22.3165C7.9671 21.7687 7.82158 21.1426 7.77928 20.2254C7.73759 19.3063 7.72713 19.0136 7.72713 16.6736C7.72713 14.3337 7.73793 14.0398 7.77915 13.1208C7.8205 12.2039 7.96622 11.5776 8.18028 11.0297C8.40156 10.4632 8.69665 9.98244 9.17699 9.50359C9.65699 9.02447 10.1387 8.73011 10.7067 8.51007C11.2557 8.29697 11.8833 8.15178 12.8026 8.10977ZM16.0755 9.61028H16.0753C15.9007 9.61021 15.7389 9.61014 15.5886 9.61034V9.60819C13.9792 9.61001 13.6705 9.62078 12.8738 9.65665C12.0319 9.69529 11.5748 9.8353 11.2704 9.95376C10.8673 10.1103 10.5795 10.297 10.2772 10.5985C9.97501 10.9001 9.7876 11.1872 9.63108 11.5894C9.51289 11.8931 9.37216 12.349 9.3337 13.189C9.29228 14.0973 9.28405 14.3687 9.28405 16.6695C9.28405 18.9703 9.29228 19.2432 9.3337 20.1514C9.37202 20.9914 9.51289 21.4474 9.63108 21.7507C9.78794 22.153 9.97501 22.4394 10.2772 22.741C10.5795 23.0426 10.8673 23.2293 11.2704 23.3854C11.5749 23.5034 12.0319 23.6437 12.8738 23.6825C13.7841 23.7238 14.0574 23.7328 16.3633 23.7328C18.6689 23.7328 18.9424 23.7238 19.8527 23.6825C20.6946 23.6441 21.1519 23.5041 21.456 23.3856C21.8592 23.2295 22.1461 23.0428 22.4483 22.7412C22.7505 22.4399 22.938 22.1535 23.0945 21.7515C23.2127 21.4481 23.3534 20.9922 23.3919 20.1521C23.4333 19.2438 23.4423 18.971 23.4423 16.6717C23.4423 14.3723 23.4333 14.0995 23.3919 13.1912C23.3536 12.3511 23.2127 11.8952 23.0945 11.5918C22.9377 11.1898 22.7505 10.9026 22.4483 10.601C22.1463 10.2995 21.859 10.1128 21.456 9.95659C21.1516 9.83866 20.6946 9.69832 19.8527 9.65988C18.9422 9.61862 18.6689 9.61034 16.3633 9.61034L16.0755 9.61028ZM20.9728 11.041C20.4007 11.041 19.9365 11.5035 19.9365 12.0745C19.9365 12.6453 20.4007 13.1084 20.9728 13.1084C21.5448 13.1084 22.009 12.6453 22.009 12.0745C22.009 11.5037 21.5448 11.0406 20.9728 11.0406V11.041ZM11.9286 16.6736C11.9286 14.2302 13.9141 12.2491 16.3631 12.249C18.8121 12.249 20.7971 14.2301 20.7971 16.6736C20.7971 19.1172 18.8123 21.0974 16.3633 21.0974C13.9142 21.0974 11.9286 19.1172 11.9286 16.6736ZM16.3633 13.8017C17.9529 13.8017 19.2417 15.0874 19.2417 16.6736C19.2417 18.2597 17.9529 19.5456 16.3633 19.5456C14.7734 19.5456 13.4848 18.2597 13.4848 16.6736C13.4848 15.0874 14.7734 13.8017 16.3633 13.8017Z" fill="white"/>
</g>
<defs>
<clipPath id="clip0_626_7672">
<rect width="32.3824" height="32.3094" fill="white" transform="translate(0.170776 0.518799)"/>
</clipPath>
</defs>
</svg>
