<svg width="33" height="33" viewBox="0 0 33 33" fill="none" xmlns="http://www.w3.org/2000/svg">
<g clip-path="url(#clip0_626_7676)">
<path fill-rule="evenodd" clip-rule="evenodd" d="M16.4114 0.518799C7.46929 0.518799 0.220215 7.75152 0.220215 16.6735C0.220215 25.5954 7.46929 32.8282 16.4114 32.8282C25.3536 32.8282 32.6026 25.5954 32.6026 16.6735C32.6026 7.75152 25.3536 0.518799 16.4114 0.518799ZM9.82805 12.3974C11.1074 12.3974 11.9043 11.5523 11.9043 10.4961C11.8805 9.41755 11.1074 8.59609 9.85221 8.59609C8.59698 8.59609 7.77636 9.41755 7.77636 10.4961C7.77636 11.5523 8.57276 12.3974 9.80458 12.3974H9.82805ZM11.6626 24.8986V13.8987H7.99332V24.8986H11.6626ZM24.8955 18.5916L24.8953 24.8986H21.2262V19.0136C21.2262 17.5355 20.6952 16.5268 19.3669 16.5268C18.3532 16.5268 17.7494 17.2068 17.4842 17.8636C17.3872 18.0989 17.3634 18.4269 17.3634 18.7556V24.8989H13.6936C13.6936 24.8989 13.742 14.9312 13.6936 13.8991H17.3634V15.457C17.8503 14.7081 18.7226 13.6405 20.6707 13.6405C23.0853 13.6405 24.8955 15.213 24.8955 18.5916Z" fill="white"/>
</g>
<defs>
<clipPath id="clip0_626_7676">
<rect width="32.3824" height="32.3094" fill="white" transform="translate(0.220215 0.518799)"/>
</clipPath>
</defs>
</svg>
