<svg width="109" height="108" viewBox="0 0 109 108" fill="none" xmlns="http://www.w3.org/2000/svg">
<g clip-path="url(#clip0_626_7692)">
<path d="M108.39 54.0308V54.1656C108.388 55.0423 108.365 55.9133 108.321 56.7777C108.319 56.8368 108.316 56.896 108.312 56.9543C108.228 58.5171 108.079 60.0619 107.864 61.5844C104.334 86.7291 83.4384 106.302 57.6938 107.787C56.6511 107.849 55.5994 107.88 54.5411 107.88C54.0407 107.88 53.5444 107.873 53.0473 107.858C52.5263 107.844 52.0087 107.823 51.491 107.793C51.2363 107.781 50.9816 107.764 50.7277 107.747C49.3851 107.653 48.0581 107.509 46.7459 107.318C46.3605 107.261 45.976 107.203 45.5947 107.137C45.5906 107.137 45.589 107.135 45.5849 107.135C45.5783 107.133 45.5717 107.133 45.5652 107.133C45.3359 107.093 45.1067 107.053 44.8799 107.011C44.5159 106.946 44.1543 106.876 43.792 106.803C19.2027 101.824 0.692139 80.0884 0.692139 54.0308C0.692139 24.2921 24.8024 0.181885 54.5411 0.181885C79.1353 0.181885 99.8775 16.6687 106.32 39.1948C106.842 41.0164 107.269 42.8758 107.597 44.7714C107.809 46.0039 107.982 47.2512 108.111 48.5117C108.116 48.5831 108.125 48.6522 108.131 48.7237C108.216 49.5774 108.278 50.4401 108.323 51.307C108.367 52.2092 108.39 53.1179 108.39 54.0308Z" fill="#5C6B99"/>
<path d="M108.391 54.1653C108.389 55.042 108.366 55.913 108.322 56.7774C108.32 56.8366 108.317 56.8957 108.313 56.9541C108.23 58.5169 108.08 60.0616 107.866 61.5842C104.336 86.7289 83.4397 106.302 57.6952 107.787C56.6525 107.848 55.6008 107.879 54.5424 107.879C54.0421 107.879 53.5458 107.873 53.0487 107.858C52.5277 107.843 52.0101 107.823 51.4924 107.793L28.249 84.6065L77.6807 23.4546L108.391 54.1653Z" fill="#455373"/>
<path d="M28.249 53.0547H80.8359V84.6068H28.249V53.0547Z" fill="#D4B93F"/>
<path d="M54.5417 53.0547H80.8352V84.6068H54.5417V53.0547Z" fill="#CC9202"/>
<path d="M31.4041 23.4546H77.6805V78.1449H31.4041V23.4546Z" fill="white"/>
<path d="M54.5417 23.4546H77.68V78.1449H54.5417V23.4546Z" fill="#EBEBEB"/>
<path d="M38.7661 51.2205H70.3182V56.4791H38.7661V51.2205Z" fill="#C0DAFB"/>
<path d="M38.7661 41.7549H70.3182V47.0136H38.7661V41.7549Z" fill="#C0DAFB"/>
<path d="M54.5417 51.2205H70.3178V56.4791H54.5417V51.2205Z" fill="#A0B9D8"/>
<path d="M54.5417 41.7549H70.3178V47.0136H54.5417V41.7549Z" fill="#A0B9D8"/>
<path d="M54.5424 68.8307L28.249 53.0547V84.6068H80.8359V53.0547L54.5424 68.8307Z" fill="#FFDF4C"/>
<path d="M54.5417 68.8307V84.6068H80.8352V53.0547L54.5417 68.8307Z" fill="#D4B93F"/>
<path d="M45.0951 37.2721H43.4928L40.3737 32.1556V37.2721H38.7715V29.4958H40.3737L43.4985 34.6231V29.4958H45.0951V37.2721Z" fill="#FF6680"/>
<path d="M51.995 33.9017H48.9187V35.9847H52.5291V37.2714H47.3164V29.4951H52.5176V30.7934H48.9187V32.647H51.995V33.9017Z" fill="#FF6680"/>
<path d="M60.3445 35.0287L61.3913 29.4956H62.9886L61.2631 37.2719H59.6502L58.3848 32.0699L57.1186 37.2719H55.5057L53.781 29.4956H55.3775L56.4301 35.018L57.7119 29.4956H59.0684L60.3445 35.0287Z" fill="#FF6680"/>
<path d="M68.7045 35.2318C68.7045 34.9286 68.5977 34.6969 68.384 34.5342C68.1712 34.3723 67.7859 34.2014 67.2304 34.0215C66.6758 33.8415 66.2354 33.6649 65.9116 33.4907C65.0283 33.0133 64.5871 32.3708 64.5871 31.5622C64.5871 31.1424 64.7054 30.7677 64.9421 30.4382C65.1787 30.1087 65.5189 29.8515 65.9626 29.6666C66.4055 29.4809 66.9034 29.3889 67.4555 29.3889C68.011 29.3889 68.5056 29.4892 68.9403 29.6905C69.3741 29.8918 69.7118 30.1761 69.9526 30.5425C70.1925 30.909 70.3125 31.3256 70.3125 31.7923H68.7102C68.7102 31.4365 68.5985 31.1588 68.3742 30.9616C68.1499 30.7644 67.8343 30.665 67.4284 30.665C67.0373 30.665 66.7325 30.748 66.5156 30.9139C66.2978 31.0791 66.1894 31.2977 66.1894 31.568C66.1894 31.8202 66.3167 32.0322 66.5714 32.2031C66.8261 32.374 67.2008 32.5343 67.6955 32.6838C68.6067 32.9582 69.2714 33.2984 69.688 33.7043C70.1046 34.1102 70.3125 34.6156 70.3125 35.2211C70.3125 35.8941 70.0586 36.4216 69.5492 36.8045C69.0397 37.1874 68.3545 37.3788 67.4925 37.3788C66.8943 37.3788 66.3496 37.2687 65.8582 37.0502C65.3669 36.8308 64.9922 36.5309 64.7342 36.1496C64.4762 35.7692 64.3472 35.3279 64.3472 34.8251H65.9544C65.9544 35.6837 66.4671 36.1126 67.4925 36.1126C67.8738 36.1126 68.1712 36.0354 68.3849 35.8801C68.5985 35.7256 68.7045 35.5095 68.7045 35.2318Z" fill="#D14960"/>
<path d="M61.3904 29.4958L60.3436 35.029L59.0667 29.4958H57.7101L56.4283 35.0183L55.3766 29.4958H54.5417V32.9313L55.5047 37.2721H57.1177L58.3831 32.0701L59.6492 37.2721H61.2622L62.9869 29.4958H61.3904Z" fill="#D14960"/>
</g>
<defs>
<clipPath id="clip0_626_7692">
<rect width="107.698" height="107.698" fill="white" transform="translate(0.692139 0.181885)"/>
</clipPath>
</defs>
</svg>
