<svg width="33" height="33" viewBox="0 0 33 33" fill="none" xmlns="http://www.w3.org/2000/svg">
<g clip-path="url(#clip0_626_7665)">
<path fill-rule="evenodd" clip-rule="evenodd" d="M16.4195 0.518799C7.47735 0.518799 0.228271 7.75152 0.228271 16.6735C0.228271 25.5954 7.47735 32.8282 16.4195 32.8282C25.3616 32.8282 32.6107 25.5954 32.6107 16.6735C32.6107 7.75152 25.3616 0.518799 16.4195 0.518799ZM15.9687 14.2088L15.9347 13.6498C15.8328 12.201 16.7275 10.8778 18.1432 10.3644C18.6641 10.1818 19.5475 10.159 20.1251 10.3187C20.3516 10.3872 20.782 10.6153 21.0878 10.8207L21.6427 11.1971L22.2543 11.0032C22.5941 10.9005 23.0471 10.7294 23.2509 10.6153C23.4435 10.5127 23.6133 10.4556 23.6133 10.4898C23.6133 10.6838 23.1943 11.3454 22.8432 11.7105C22.3675 12.2238 22.5035 12.2695 23.4661 11.9273C24.0437 11.7333 24.055 11.7333 23.9418 11.9501C23.8738 12.0641 23.5227 12.4634 23.149 12.8285C22.5148 13.4559 22.4808 13.5244 22.4808 14.0491C22.4808 14.8591 22.0957 16.5474 21.7107 17.4715C20.9972 19.2055 19.4682 20.9966 17.9393 21.8978C15.7875 23.1641 12.9221 23.4835 10.5098 22.742C9.70575 22.491 8.32403 21.8522 8.32403 21.7381C8.32403 21.7038 8.74305 21.6582 9.25273 21.6468C10.3173 21.624 11.3819 21.3274 12.2879 20.8026L12.8995 20.4376L12.1973 20.198C11.2007 19.8558 10.306 19.0686 10.0795 18.3271C10.0115 18.0875 10.0342 18.0761 10.6684 18.0761L11.3253 18.0647L10.7703 17.8023C10.1134 17.4715 9.51321 16.9125 9.21873 16.3421C9.00359 15.9314 8.73178 14.8933 8.81105 14.8134C8.83365 14.7792 9.07152 14.8477 9.34334 14.939C10.1248 15.2242 10.2267 15.1557 9.77368 14.6765C8.92425 13.8096 8.66378 12.5205 9.07153 11.2998L9.26407 10.7522L10.0115 11.4937C11.5405 12.9882 13.3412 13.878 15.4024 14.1404L15.9687 14.2088Z" fill="white"/>
</g>
<defs>
<clipPath id="clip0_626_7665">
<rect width="32.3824" height="32.3094" fill="white" transform="translate(0.228271 0.518799)"/>
</clipPath>
</defs>
</svg>
